<?xml version="1.0" standalone="no"?>
<!DOCTYPE svg PUBLIC "-//W3C//DTD SVG 20010904//EN"
 "http://www.w3.org/TR/2001/REC-SVG-20010904/DTD/svg10.dtd">
<svg version="1.0" xmlns="http://www.w3.org/2000/svg"
 width="294.000000pt" height="82.000000pt" viewBox="0 0 294.000000 82.000000"
 preserveAspectRatio="xMidYMid meet">

<g transform="translate(0.000000,82.000000) scale(0.100000,-0.100000)"
fill="#000000" stroke="none">
<path d="M1836 758 l-39 -52 39 -32 39 -33 -34 -35 c-27 -28 -37 -33 -45 -22
-6 7 -34 22 -63 33 l-51 21 -37 -25 c-20 -14 -39 -22 -42 -20 -2 3 1 31 8 62
12 52 11 57 -8 76 -19 20 -21 20 -56 3 -35 -17 -37 -17 -57 1 -20 18 -21 18
-45 -5 -24 -23 -24 -23 -6 -59 30 -59 33 -89 15 -121 -13 -21 -15 -32 -7 -42
6 -7 14 -54 18 -104 5 -71 4 -98 -9 -127 l-15 -37 30 0 c16 0 42 -6 57 -14 23
-12 31 -12 52 0 14 7 33 13 42 14 9 0 22 8 27 17 10 17 10 17 11 1 0 -10 4
-18 10 -18 5 0 -1 -30 -15 -67 -14 -36 -24 -68 -22 -70 2 -2 34 28 70 67 37
38 71 70 76 70 4 0 12 63 16 140 4 77 10 140 15 140 10 0 23 -161 14 -183 -4
-10 -1 -17 6 -17 8 0 11 -12 8 -36 -4 -34 -2 -37 44 -60 26 -13 49 -24 52 -24
2 0 18 18 36 40 l31 39 -32 17 c-23 11 -28 18 -19 24 9 5 15 38 18 92 3 66 9
88 25 106 16 17 23 19 29 10 13 -22 9 -97 -7 -129 -19 -37 -14 -46 31 -55 l35
-6 -26 -32 c-38 -47 -56 -84 -45 -91 6 -3 14 5 20 19 11 31 16 31 74 6 l45
-19 76 32 c73 30 75 32 70 59 -4 17 -2 28 4 28 6 0 11 19 11 43 0 24 6 49 13
56 10 10 8 15 -7 26 -10 8 -24 16 -30 19 -6 3 -1 13 13 24 33 26 61 10 61 -34
0 -55 12 -124 21 -118 11 7 11 -10 0 -58 l-9 -37 54 -21 c30 -11 58 -20 61
-20 14 0 93 85 93 99 0 12 -3 12 -12 3 -13 -13 -47 -16 -72 -6 -17 7 -22 34
-6 34 6 0 10 28 10 65 l0 65 55 0 55 0 0 -80 c0 -49 4 -80 10 -80 6 0 9 -12 8
-26 -3 -25 3 -30 67 -56 l70 -29 67 33 c51 25 67 38 68 55 0 12 4 23 9 25 5 2
11 56 12 121 l4 118 -78 35 -78 34 -42 -22 c-23 -11 -55 -24 -72 -28 -16 -4
-38 -11 -47 -15 -15 -6 -18 -2 -18 19 0 24 -4 26 -40 26 l-40 0 0 40 c0 35 -3
40 -22 40 -47 0 -67 -12 -78 -46 -6 -19 -21 -41 -32 -49 -20 -14 -23 -12 -46
40 -14 30 -28 55 -32 55 -4 0 -10 -20 -13 -45 -2 -26 -7 -48 -10 -51 -3 -3
-23 7 -46 21 l-40 27 -87 -47 -87 -47 -53 37 -54 37 45 52 44 52 -54 42 c-29
23 -57 42 -62 42 -5 0 -26 -23 -47 -52z m-178 -261 c7 -8 9 -46 5 -105 -6 -88
-7 -92 -27 -86 -35 10 -38 19 -39 100 0 64 3 79 18 90 23 17 30 17 43 1z m517
-17 c0 -7 -6 -15 -12 -17 -8 -3 -13 4 -13 17 0 13 5 20 13 18 6 -3 12 -11 12
-18z m603 -2 c7 -7 12 -40 12 -80 0 -53 -3 -68 -15 -68 -23 0 -35 34 -35 99 0
62 11 76 38 49z m-588 -117 c0 -11 5 -21 11 -23 5 -2 7 -11 3 -21 -5 -14 -13
-16 -43 -11 -20 4 -39 9 -43 11 -12 6 -10 23 2 23 6 0 20 9 32 20 27 25 38 25
38 1z m603 -48 c-7 -2 -19 -2 -25 0 -7 3 -2 5 12 5 14 0 19 -2 13 -5z"/>
<path d="M130 779 l-25 -10 37 -34 37 -34 -19 -88 c-10 -48 -26 -119 -34 -157
-11 -44 -13 -72 -7 -76 19 -11 -15 -123 -44 -146 -35 -27 -25 -32 54 -25 63 6
63 6 42 25 -11 11 -21 31 -21 45 0 51 13 101 25 101 7 0 15 20 19 50 13 101
18 102 66 22 23 -40 48 -72 55 -72 8 0 28 -25 45 -55 36 -64 47 -62 77 11 10
24 24 44 31 44 7 0 25 26 39 57 22 47 28 54 34 38 4 -11 8 -32 8 -47 1 -15 8
-34 16 -42 9 -9 20 -42 25 -73 13 -78 13 -83 -7 -83 -15 0 -16 -2 -3 -10 19
-12 200 -13 200 -1 0 5 -6 14 -14 20 -17 14 -42 134 -29 138 5 2 -1 62 -14
136 -13 72 -22 159 -21 192 1 33 -1 66 -5 73 -5 8 -33 12 -78 12 -75 0 -94
-14 -70 -51 9 -16 3 -37 -40 -129 -29 -61 -56 -110 -60 -110 -5 0 -33 49 -64
109 -54 108 -54 109 -33 123 15 10 19 20 14 36 -7 21 -13 22 -109 21 -56 0
-113 -5 -127 -10z m583 -413 c3 -7 9 -35 13 -61 8 -58 -10 -55 -20 2 -4 21 -9
46 -12 56 -6 20 11 23 19 3z"/>
<path d="M1288 609 l-47 -31 -29 22 c-28 21 -31 21 -61 5 -18 -9 -35 -23 -38
-31 -5 -13 -7 -13 -17 0 -6 8 -35 24 -65 37 l-55 23 -75 -40 -76 -40 0 -107
c0 -83 3 -110 14 -117 11 -6 12 -14 4 -32 -9 -21 -6 -25 38 -50 27 -16 56 -28
66 -28 10 0 45 25 78 55 32 30 62 55 66 55 3 0 4 11 2 24 l-5 24 -35 -20 c-22
-14 -30 -23 -23 -28 21 -13 -42 -28 -70 -17 -15 5 -20 11 -12 14 6 3 12 10 12
17 0 6 29 41 65 76 36 35 65 72 65 82 0 21 11 23 28 6 20 -20 15 -185 -8 -235
l-19 -43 24 0 c33 0 39 -14 36 -87 -1 -34 0 -63 4 -63 3 0 18 6 33 14 24 12
30 12 47 0 29 -22 37 -17 21 14 -8 15 -17 44 -21 65 l-7 37 45 0 c25 0 49 5
52 10 3 6 13 10 22 10 9 0 30 11 48 24 l31 24 -2 148 -3 147 -42 34 c-23 18
-42 33 -43 33 -1 0 -22 -14 -48 -31z m10 -197 c3 -77 2 -82 -18 -82 -19 0 -20
6 -20 86 0 76 2 85 18 82 14 -3 17 -16 20 -86z m-323 69 c3 -5 1 -12 -5 -16
-5 -3 -10 1 -10 9 0 18 6 21 15 7z"/>
</g>
</svg>
